<svg width="181" height="102" viewBox="0 0 181 102" fill="none" xmlns="http://www.w3.org/2000/svg">
<g clip-path="url(#clip0_187_5388)">
<path d="M119.114 71.2258C133.671 52.8635 129.942 8.10524 129.942 8.10524C104.771 13.4848 92.006 1.93663 90.2849 0.215163C90.2849 0.215163 90.2848 0.071725 90.2131 0.143453C90.1414 0.071725 90.1414 0.215163 90.1414 0.215163C88.4203 1.93663 75.6554 13.4848 50.5558 8.10524C50.5558 8.10524 46.6833 52.9352 61.3127 71.2258C76.9462 90.8075 90.2132 96.6892 90.2849 96.6175C90.2849 96.6892 103.624 90.8793 119.114 71.2258ZM90.2131 87.795C90.1414 87.795 79.3127 82.1285 66.4761 66.3483C54.4283 51.5724 57.5836 15.4215 57.5836 15.4215C78.237 19.7252 88.7072 10.4005 90.1414 9.03769C90.1414 9.03769 90.1414 8.89425 90.2131 8.96598C90.2848 8.89425 90.2849 9.03769 90.2849 9.03769C91.7191 10.4005 102.189 19.7252 122.843 15.4215C122.843 15.4215 125.926 51.5006 114.022 66.3483C101.257 82.2002 90.2848 87.795 90.2131 87.795Z" fill="#FF961B"/>
<path d="M112.086 39.0917C107.161 39.0439 102.237 39.02 97.3127 39.02C96.8347 39.02 96.3805 39.02 95.9502 39.02C95.9502 35.4336 95.9502 31.8472 95.9502 28.2608C95.9502 26.4437 95.9502 24.6505 95.9502 22.8812C95.9502 22.2357 95.4482 21.7336 94.8745 21.7336C91.8147 21.7336 88.755 21.7336 85.6952 21.7336C85.1215 21.7336 84.6195 22.2356 84.6195 22.8095C84.5717 27.7348 84.5478 32.6601 84.5478 37.5855C84.5478 38.0636 84.5478 38.5179 84.5478 38.9483C80.9622 38.9483 77.3765 38.9483 73.7908 38.9483C71.9741 38.9483 70.1813 38.9483 68.4124 38.9483C67.7669 38.9483 67.2649 39.4503 67.2649 40.0242C67.2649 43.0846 67.2649 46.1449 67.2649 49.2053C67.2649 49.564 67.4084 49.7792 67.5518 49.9944C67.7669 50.1378 67.9821 50.2813 68.3406 50.2813C73.2649 50.3291 78.1893 50.353 83.1136 50.353C83.5916 50.353 84.0458 50.353 84.4761 50.353C84.4761 53.9394 84.4761 57.5258 84.4761 61.1122C84.4761 62.9293 84.4522 64.7225 84.4044 66.4918C84.4044 67.1373 84.9781 67.6394 85.5518 67.6394C88.6115 67.6394 91.6713 67.6394 94.7311 67.6394C95.0897 67.6394 95.3048 67.496 95.5199 67.3525C95.6633 67.1374 95.8068 66.9221 95.8068 66.5635C95.8546 61.6382 95.8785 56.7129 95.8785 51.7876C95.8785 51.3094 95.8785 50.8551 95.8785 50.4247C99.4641 50.4247 103.05 50.4247 106.635 50.4247C108.404 50.4247 110.197 50.4247 112.014 50.4247C112.588 50.4247 113.161 49.9226 113.161 49.3488C113.161 46.2884 113.161 43.228 113.161 40.1676C113.161 39.5938 112.659 39.0917 112.086 39.0917Z" fill="#FF961B"/>
<path d="M163.647 45.4755C172.612 45.4755 179.855 38.231 179.855 29.3367C179.855 20.3707 172.612 13.1262 163.647 13.1262C154.683 13.1262 147.44 20.3707 147.44 29.3367C147.44 38.231 154.683 45.4755 163.647 45.4755Z" fill="#2C50EE"/>
<path d="M149.233 52.3614C148.301 44.6865 136.827 8.96599 136.827 8.96599C143.998 74.884 97.3127 101.638 97.3127 101.638C168.237 97.7652 179.855 45.3321 179.855 45.3321C179.855 45.3321 149.879 57.741 149.233 52.3614Z" fill="#2C50EE"/>
<path d="M17.2092 45.4755C26.1016 45.4755 33.3446 38.231 33.3446 29.3367C33.3446 20.3707 26.1016 13.1262 17.2092 13.1262C8.24501 13.1262 1.002 20.3707 1.002 29.3367C1.002 38.231 8.24501 45.4755 17.2092 45.4755Z" fill="#2C50EE"/>
<path d="M83.5438 101.638C83.5438 101.638 37.002 80.5505 44.3167 8.96599C44.3167 8.96599 32.5558 44.6865 31.6235 52.3614C30.9781 57.741 1.002 45.3321 1.002 45.3321C1.002 45.3321 12.5478 97.7652 83.5438 101.638Z" fill="#2C50EE"/>
</g>
<defs>
<clipPath id="clip0_187_5388">
<rect width="180" height="101.854" fill="white" transform="translate(0.5)"/>
</clipPath>
</defs>
</svg>
